<?xml version="1.0" standalone="no"?>
<!DOCTYPE svg PUBLIC "-//W3C//DTD SVG 20010904//EN"
 "http://www.w3.org/TR/2001/REC-SVG-20010904/DTD/svg10.dtd">
<svg version="1.0" xmlns="http://www.w3.org/2000/svg"
 width="1255.000000pt" height="1255.000000pt" viewBox="0 0 1255.000000 1255.000000"
 preserveAspectRatio="xMidYMid meet">
<metadata>
Created by potrace 1.14, written by Peter Selinger 2001-2017
</metadata>
<g transform="translate(0.000000,1255.000000) scale(0.100000,-0.100000)"
fill="#000000" stroke="none">
<path d="M957 9535 c-2 -5 -2 -16 0 -22 4 -10 1078 -13 5325 -13 l5319 0 -3
23 -3 22 -5317 0 c-3598 0 -5319 -3 -5321 -10z"/>
<path d="M5480 6416 c0 -2259 0 -2265 20 -2263 11 1 20 6 21 12 1 13 1 4498 0
4508 -1 4 -10 7 -21 7 -20 0 -20 -7 -20 -2264z"/>
<path d="M5545 8672 c-3 -3 -5 -1022 -5 -2264 0 -2205 0 -2258 19 -2258 10 0
20 8 23 18 3 14 3 4486 -1 4503 -1 7 -29 8 -36 1z"/>
<path d="M5600 6414 l0 -2265 22 3 22 3 1 2250 c0 1238 -1 2256 -3 2263 -2 6
-13 12 -23 12 -19 0 -19 -49 -19 -2266z"/>
<path d="M5667 8673 c-4 -3 -7 -1023 -7 -2265 0 -2209 0 -2258 19 -2258 10 0
21 6 23 13 3 10 2 4356 -1 4480 -1 35 -16 48 -34 30z"/>
<path d="M5720 6415 c0 -2216 0 -2265 19 -2265 10 0 21 6 23 12 3 11 2 4461
-1 4506 -1 6 -10 12 -21 12 -20 0 -20 -7 -20 -2265z"/>
<path d="M5782 6418 c3 -2255 3 -2263 23 -2263 20 0 20 7 20 2263 l0 2262 -22
0 -23 0 2 -2262z"/>
<path d="M5840 6414 l0 -2265 22 3 22 3 1 2250 c0 1238 -1 2256 -3 2263 -2 6
-13 12 -23 12 -19 0 -19 -49 -19 -2266z"/>
<path d="M5900 6415 c0 -2258 0 -2265 20 -2265 12 0 20 7 21 18 1 9 2 1028 3
2264 l1 2248 -22 0 -23 0 0 -2265z"/>
<path d="M5960 6414 c0 -2215 0 -2264 19 -2264 10 0 21 6 23 12 8 23 3 4496
-5 4504 -4 4 -14 9 -22 10 -13 2 -15 -275 -15 -2262z"/>
<path d="M6022 6418 c3 -2255 3 -2263 23 -2263 20 0 20 7 20 2263 l0 2262 -23
0 -22 0 2 -2262z"/>
<path d="M920 8408 c-237 -17 -450 -116 -621 -287 -266 -267 -355 -653 -232
-1010 56 -166 199 -424 340 -614 114 -154 167 -213 443 -496 186 -191 373
-445 470 -638 73 -145 79 -177 74 -382 -2 -96 -7 -187 -9 -203 -3 -15 -7 -43
-10 -60 -38 -244 -148 -425 -280 -464 -121 -35 -258 1 -324 85 -126 160 -169
345 -174 753 -2 148 -2 148 -25 148 l-24 0 6 -207 c3 -115 8 -221 11 -238 2
-16 6 -49 9 -72 7 -53 31 -159 46 -198 6 -16 7 -25 2 -20 -19 19 -64 160 -83
257 -21 107 -33 244 -33 385 0 81 -3 92 -19 97 -11 2 -21 -2 -24 -11 -6 -15 3
-275 12 -348 18 -144 43 -251 84 -352 32 -82 15 -63 -29 32 -40 83 -83 226
-95 315 -4 25 -9 59 -11 75 -4 24 -9 126 -13 266 -1 9 -11 19 -22 22 -22 6
-22 5 -16 -146 9 -238 53 -436 132 -587 42 -80 9 -43 -41 46 -33 59 -88 197
-98 246 -3 13 -12 59 -21 103 -9 44 -18 134 -20 200 -2 66 -4 123 -5 126 0 4
-10 9 -21 12 -22 6 -22 6 -16 -151 7 -171 25 -272 76 -411 33 -91 91 -202 124
-241 16 -18 17 -20 4 -10 -64 49 -179 265 -216 405 -31 122 -39 186 -40 328
-1 73 -2 77 -24 77 -25 0 -24 14 -16 -178 8 -220 100 -470 233 -633 12 -14 -3
0 -32 30 -154 161 -246 402 -251 661 -1 63 -5 118 -9 122 -4 4 -14 3 -22 -2
-11 -7 -14 -33 -12 -125 0 -64 3 -124 6 -133 3 -9 8 -37 11 -60 21 -151 121
-358 234 -486 20 -23 27 -34 16 -26 -56 41 -163 176 -206 263 -30 58 -68 150
-74 177 -27 118 -33 168 -34 267 -1 65 -3 118 -4 119 -1 1 -11 4 -22 6 -19 3
-20 -2 -19 -87 1 -211 29 -337 109 -495 137 -272 410 -471 715 -524 74 -13
252 -14 320 -2 127 22 223 56 335 119 304 171 497 500 496 847 0 58 -3 116 -5
130 -3 13 -8 42 -12 64 -22 150 -163 441 -331 683 -114 166 -190 254 -444 517
-157 163 -192 203 -296 343 -147 197 -238 358 -272 482 -17 59 -19 94 -16 222
6 198 12 257 41 379 33 136 112 275 185 326 72 50 179 62 281 33 93 -28 201
-178 243 -337 37 -143 46 -233 48 -494 l2 -158 24 0 23 0 -6 213 c-7 238 -7
248 -42 434 -2 12 -9 34 -14 49 -6 15 -9 29 -7 31 5 5 41 -94 61 -167 31 -112
50 -290 50 -472 0 -86 1 -88 25 -88 l24 0 -6 168 c-4 92 -8 176 -11 187 -2 11
-6 41 -10 66 -18 120 -37 196 -70 278 -13 34 -23 61 -20 61 2 0 17 -26 33 -57
81 -163 123 -369 125 -609 1 -90 1 -91 25 -91 l24 0 -6 146 c-9 230 -49 411
-124 566 -24 49 -28 62 -13 45 30 -36 105 -194 128 -270 34 -110 53 -238 56
-364 2 -113 3 -121 21 -121 19 0 20 8 22 105 3 237 -68 497 -181 663 -41 60
-20 42 30 -25 59 -81 106 -175 143 -285 38 -117 53 -214 55 -351 1 -107 2
-113 21 -110 18 3 20 11 21 108 2 127 -9 213 -42 328 -31 109 -109 271 -165
343 -37 48 -38 50 -10 24 83 -76 183 -253 225 -396 31 -109 39 -170 40 -299 1
-103 1 -105 25 -108 l24 -4 -6 144 c-3 78 -8 152 -11 163 -2 11 -9 41 -15 68
-35 152 -134 343 -230 445 -12 12 -19 22 -15 22 14 0 115 -116 157 -180 124
-187 162 -336 167 -647 0 -7 9 -13 20 -13 19 0 20 7 20 108 0 182 -30 313
-107 467 -159 321 -459 518 -833 547 -19 2 -78 0 -130 -4z m-567 -312 c-155
-170 -246 -417 -247 -666 0 -180 34 -297 150 -519 151 -289 291 -471 628 -815
290 -296 531 -654 587 -871 17 -67 19 -98 14 -195 -10 -186 -27 -287 -72 -425
-25 -78 -53 -132 -32 -64 28 96 48 212 54 325 9 170 6 299 -10 359 -53 200
-289 545 -571 835 -377 386 -521 581 -683 921 -68 142 -87 200 -105 320 -43
286 56 579 266 789 38 38 72 70 75 70 3 0 -22 -29 -54 -64z m69 -3 c-86 -104
-160 -259 -195 -408 -73 -303 -28 -516 186 -870 119 -198 280 -397 518 -640
241 -247 391 -442 521 -676 91 -166 123 -266 123 -389 0 -171 -30 -347 -83
-480 -24 -59 -84 -172 -67 -125 68 188 80 244 101 455 8 85 5 219 -5 260 -32
122 -100 259 -217 435 -123 186 -210 290 -449 535 -202 208 -335 370 -443 539
-76 118 -187 335 -217 424 -28 84 -55 240 -49 290 2 18 5 59 8 92 11 132 85
332 165 448 31 45 129 157 138 157 2 0 -13 -21 -35 -47z m40 -40 c-127 -191
-199 -505 -168 -732 24 -168 166 -442 371 -710 87 -114 158 -194 357 -400 244
-252 409 -473 529 -707 89 -175 112 -255 113 -389 1 -125 -7 -187 -34 -297
-33 -128 -100 -277 -155 -343 -24 -29 -24 -28 3 20 62 110 99 229 126 400 21
133 23 250 7 333 -32 162 -185 436 -381 682 -96 120 -127 155 -263 293 -216
221 -341 369 -462 552 -79 118 -170 285 -205 375 -97 247 -72 540 69 801 34
65 116 179 127 179 3 0 -13 -26 -34 -57z m50 -30 c-51 -102 -95 -232 -106
-313 -3 -19 -7 -44 -9 -55 -22 -98 -24 -280 -4 -365 43 -181 207 -463 415
-713 41 -49 82 -97 91 -107 9 -9 75 -77 146 -151 156 -161 249 -266 333 -376
186 -244 332 -523 367 -698 12 -59 14 -201 4 -274 -27 -192 -125 -416 -228
-521 l-34 -35 27 34 c63 79 142 268 170 406 25 129 26 135 27 237 0 68 -6 124
-21 185 -26 104 -112 285 -204 431 -58 92 -197 281 -236 322 -8 9 -41 46 -73
82 -32 37 -101 111 -155 165 -190 193 -314 338 -422 499 -127 187 -221 375
-257 515 -13 53 -12 246 3 324 31 164 88 316 161 427 36 54 38 47 5 -19z m53
-20 c-85 -210 -121 -558 -75 -721 66 -236 301 -578 620 -902 286 -290 453
-509 595 -782 108 -209 146 -350 141 -523 -8 -235 -97 -457 -250 -620 l-47
-50 44 60 c106 146 165 293 202 506 10 57 7 203 -5 269 -32 175 -135 389 -303
629 -115 164 -181 243 -374 441 -67 69 -131 136 -143 150 -12 14 -38 43 -59
65 -187 201 -403 543 -463 730 -42 132 -26 392 38 589 23 73 89 216 98 216 3
0 -6 -26 -19 -57z m67 20 c-16 -29 -51 -184 -59 -259 -4 -38 -8 -152 -8 -254
0 -170 2 -190 23 -245 90 -232 304 -532 594 -830 187 -193 234 -245 319 -355
144 -186 293 -436 363 -609 85 -215 96 -451 29 -656 -37 -115 -124 -260 -214
-356 -60 -63 -75 -66 -23 -4 178 210 261 491 228 775 -23 204 -217 574 -457
870 -84 104 -131 154 -330 360 -122 125 -143 149 -234 265 -155 197 -290 429
-331 569 -38 127 -15 428 47 616 27 81 53 141 58 136 3 -2 0 -13 -5 -23z"/>
<path d="M3675 7633 c-38 -8 -81 -16 -94 -19 -118 -25 -288 -122 -390 -225
-184 -186 -305 -486 -312 -774 -2 -87 -1 -91 21 -92 17 -2 20 5 21 45 1 60 16
211 24 242 1 3 5 21 9 40 37 173 144 379 253 490 l45 45 -45 -60 c-151 -204
-246 -514 -238 -777 1 -21 6 -28 21 -28 18 0 20 7 21 58 0 31 2 66 4 77 2 11
6 43 9 70 17 174 86 369 182 518 47 72 104 144 104 130 0 -3 -9 -16 -19 -27
-20 -21 -115 -203 -138 -261 -33 -86 -67 -219 -78 -307 -23 -174 -22 -253 5
-253 12 0 17 21 22 100 11 135 42 297 79 403 34 96 108 243 145 288 21 25 20
22 -6 -26 -61 -115 -126 -312 -146 -440 -3 -25 -8 -56 -10 -70 -5 -29 -16
-156 -16 -185 -1 -58 2 -71 22 -72 18 -2 20 5 21 50 3 221 70 508 156 667 48
89 60 99 24 19 -65 -144 -112 -356 -127 -574 -11 -156 -10 -160 16 -162 17 -1
20 5 21 35 1 83 8 172 23 287 16 117 57 273 99 373 32 78 47 93 21 21 -23 -65
-59 -222 -69 -299 -16 -129 -22 -201 -25 -305 -3 -112 -2 -114 20 -112 16 1
20 9 21 42 3 235 48 541 98 665 14 35 13 26 -3 -55 -31 -148 -44 -297 -47
-515 -2 -146 -3 -140 21 -140 16 0 20 7 21 38 4 156 16 384 25 455 17 142 57
292 101 380 76 153 200 188 300 85 69 -72 110 -172 143 -347 31 -169 31 -176
37 -602 l5 -405 -78 -29 c-99 -35 -387 -174 -519 -250 -296 -170 -509 -364
-602 -548 -108 -215 -100 -516 20 -737 112 -206 323 -358 559 -405 91 -17 260
-13 344 9 72 19 193 68 240 97 39 23 38 24 35 -58 -2 -40 0 -43 24 -43 l25 0
-2 1370 c-2 754 -2 1370 -2 1370 1 0 7 -46 14 -102 7 -57 14 -112 17 -123 8
-41 14 -610 16 -1547 l2 -968 23 0 23 0 -5 1198 c-3 658 -8 1229 -11 1267 -11
122 -53 398 -68 448 -16 51 -13 64 4 20 43 -111 99 -383 105 -503 7 -158 17
-1140 18 -1787 l1 -643 24 0 24 0 -7 1058 c-4 581 -9 1107 -11 1167 -1 61 -4
151 -5 200 -4 156 -76 463 -146 622 -36 81 -14 54 34 -42 71 -143 136 -355
147 -475 17 -208 28 -825 29 -1722 1 -438 4 -800 8 -803 4 -4 15 -5 24 -1 16
6 16 76 10 1024 -3 559 -8 1069 -10 1132 -16 415 -15 408 -46 530 -52 204
-127 373 -226 507 l-35 48 46 -50 c101 -109 181 -252 239 -428 36 -108 44
-143 51 -247 22 -311 28 -627 29 -1585 l1 -930 23 -3 23 -4 -5 1079 c-3 593
-7 1110 -10 1148 -3 39 -8 122 -11 185 -8 162 -15 229 -27 275 -39 155 -133
356 -217 467 -26 35 -75 88 -107 118 -44 40 -51 49 -25 34 58 -33 166 -140
218 -216 97 -140 175 -322 187 -438 4 -30 9 -71 11 -90 5 -43 13 -133 21 -265
4 -55 8 -590 9 -1190 1 -599 3 -1093 4 -1097 0 -5 10 -8 22 -8 l20 0 -4 1163
c-2 639 -7 1178 -10 1197 -2 19 -8 80 -12 134 -3 55 -8 102 -9 105 -2 3 -7 35
-10 70 -18 166 -155 430 -298 571 -49 48 -160 130 -176 130 -6 0 -14 5 -17 11
-9 14 59 -15 124 -54 119 -70 258 -229 334 -382 38 -77 75 -186 91 -272 9 -43
19 -91 22 -108 4 -16 8 -595 10 -1285 1 -690 3 -1261 3 -1267 1 -7 10 -13 21
-13 l21 0 -4 1278 c-2 702 -5 1284 -7 1292 -59 340 -181 572 -390 742 -103 83
-274 153 -399 164 -36 3 -77 7 -91 8 -14 2 -56 -3 -95 -11z m400 -2419 l0
-787 -49 -43 c-148 -129 -377 -167 -500 -81 -100 70 -159 300 -160 622 -1 495
95 708 412 919 103 69 263 156 285 156 9 0 12 -178 12 -786z m-895 363 c-195
-186 -270 -340 -271 -562 -3 -272 64 -496 184 -624 l42 -45 -39 33 c-163 138
-256 353 -256 596 0 105 24 199 77 305 42 84 62 109 174 223 70 70 131 127
135 127 5 0 -16 -24 -46 -53z m80 0 c-138 -126 -212 -257 -236 -417 -7 -49 -7
-265 1 -345 14 -140 50 -268 101 -365 l35 -65 -33 35 c-19 19 -43 49 -54 65
-29 42 -80 172 -93 236 -6 30 -13 68 -16 84 -4 17 -8 92 -9 168 -5 198 24 296
128 433 44 60 189 204 204 204 4 0 -9 -15 -28 -33z m26 -51 c-97 -115 -140
-209 -154 -341 -10 -87 -8 -380 2 -460 12 -85 54 -231 86 -297 l31 -63 -37 40
c-46 50 -88 137 -114 239 -28 110 -34 176 -35 366 0 148 2 173 24 238 30 93
80 170 172 266 39 42 73 76 76 76 2 0 -21 -29 -51 -64z m70 2 c-35 -48 -86
-152 -102 -212 -33 -122 -39 -508 -9 -671 19 -110 65 -247 92 -278 17 -19 17
-20 -4 -8 -65 34 -138 219 -158 401 -11 95 -7 382 5 452 22 117 77 223 168
321 35 37 38 34 8 -5z m37 -65 c-52 -143 -68 -270 -68 -533 0 -257 22 -405 79
-535 30 -67 31 -72 12 -55 -51 42 -115 202 -131 329 -4 30 -9 63 -11 75 -12
53 -5 420 10 496 18 96 35 140 89 228 21 34 40 62 42 62 1 0 -8 -30 -22 -67z"/>
<path d="M7650 7630 c-217 -29 -442 -151 -565 -308 -93 -117 -163 -259 -180
-362 -4 -25 -10 -54 -12 -65 -9 -33 -9 -1945 -1 -2010 21 -163 71 -284 173
-420 133 -177 319 -288 555 -331 83 -15 256 -11 349 8 339 69 599 280 704 574
38 107 48 181 51 383 1 94 -2 128 -13 138 -7 8 -17 11 -21 6 -5 -4 -10 -87
-13 -183 -6 -201 -10 -229 -44 -325 -26 -72 -95 -199 -114 -211 -6 -3 -4 4 4
17 26 40 75 171 82 219 4 24 8 47 10 51 8 12 18 195 18 299 -1 146 0 139 -23
133 -19 -5 -20 -14 -21 -152 0 -80 -2 -155 -4 -166 -2 -11 -6 -45 -10 -75 -13
-102 -26 -148 -69 -242 -45 -96 -74 -134 -45 -58 11 30 24 62 29 71 7 14 22
82 35 154 9 58 17 195 19 329 1 135 1 136 -21 136 -23 0 -23 -2 -24 -142 0
-79 -2 -156 -3 -173 -15 -173 -37 -274 -85 -380 -17 -36 -32 -65 -34 -65 -3 0
6 35 19 78 40 126 55 269 58 539 1 139 1 142 -21 146 -23 4 -23 4 -24 -132 0
-75 -2 -156 -4 -181 -11 -171 -17 -230 -27 -265 -5 -22 -12 -50 -14 -63 -7
-37 -43 -127 -59 -148 -13 -17 -13 -15 -1 16 13 31 18 58 41 190 3 19 9 157
12 306 5 243 4 271 -10 277 -9 3 -19 1 -23 -4 -3 -6 -8 -115 -9 -242 -4 -315
-22 -455 -67 -537 -11 -19 -17 -27 -14 -18 5 18 13 60 22 123 3 22 8 182 11
356 5 315 5 316 -16 322 -12 3 -21 2 -21 -1 -1 -4 -3 -140 -5 -302 -3 -162 -7
-313 -9 -335 -13 -103 -18 -130 -31 -161 -18 -43 -26 -44 -14 -2 5 18 9 205 9
415 0 376 0 383 -20 383 -11 0 -20 -6 -21 -12 0 -7 -1 -184 -2 -393 -2 -342
-4 -384 -20 -416 -32 -66 -85 -117 -155 -151 -63 -31 -73 -33 -177 -33 -100 0
-115 2 -167 28 -108 53 -156 137 -158 277 -1 36 -1 327 -1 648 l1 582 348 0
c191 0 353 4 360 8 19 12 13 1525 -6 1562 -12 24 -12 24 3 5 20 -26 42 -103
51 -185 4 -36 8 -357 10 -715 1 -357 3 -653 3 -657 1 -5 10 -8 22 -8 l21 0 -5
688 c-5 716 -7 776 -32 836 -20 48 -11 46 14 -2 17 -34 30 -90 57 -247 4 -22
8 -312 10 -645 1 -333 3 -611 3 -617 1 -7 10 -13 22 -13 l21 0 -5 638 c-2 350
-7 651 -10 668 -28 150 -38 198 -47 214 -6 11 -8 20 -6 20 10 0 37 -60 56
-123 36 -116 42 -158 55 -347 2 -25 4 -276 4 -557 1 -506 1 -513 21 -513 11 0
20 6 21 13 4 52 0 1065 -5 1107 -3 30 -8 85 -12 123 -3 37 -18 110 -34 162
-15 52 -25 95 -23 95 8 0 61 -125 77 -180 42 -149 44 -185 45 -822 1 -467 2
-496 19 -493 9 2 19 4 22 4 8 1 4 1005 -4 1091 -11 125 -27 201 -61 292 -18
49 -29 86 -25 83 4 -2 26 -42 48 -88 44 -91 67 -169 78 -262 4 -33 8 -67 10
-75 1 -8 3 -248 3 -532 l1 -518 22 3 22 4 -1 489 c0 435 -4 615 -17 679 -13
66 -40 152 -66 212 -22 49 -25 61 -11 43 35 -45 91 -165 113 -246 21 -76 22
-100 25 -569 4 -622 4 -608 26 -611 9 -1 17 3 18 9 0 7 1 233 1 502 1 479 -4
611 -22 661 -5 13 -8 24 -5 24 10 0 -50 141 -87 203 -88 150 -216 267 -376
347 -80 39 -209 82 -287 95 -64 10 -235 13 -295 5z m266 -132 c97 -33 152 -79
200 -168 18 -33 19 -70 20 -727 1 -381 -1 -693 -5 -694 -28 -5 -664 -3 -667 2
-2 4 -4 312 -4 685 0 752 -1 744 63 820 35 39 105 81 161 95 55 13 173 7 232
-13z m-481 -145 c-4 -10 -9 -31 -13 -48 -8 -44 -7 -2812 2 -2865 4 -28 3 -39
-2 -30 -15 25 -32 109 -41 210 -13 148 -7 2521 7 2602 11 65 39 148 49 148 3
0 2 -8 -2 -17z m-73 -44 c-9 -23 -19 -96 -28 -199 -6 -69 -6 -2407 0 -2470 15
-148 19 -178 32 -210 13 -32 13 -33 -1 -15 -25 31 -43 103 -67 255 -13 85 -18
2169 -6 2346 7 101 37 248 59 298 15 32 23 28 11 -5z m-67 -16 c-13 -36 -41
-190 -46 -253 -7 -109 -4 -2249 3 -2345 6 -78 30 -196 52 -260 5 -13 2 -11 -8
5 -18 29 -60 155 -75 221 -21 95 -25 278 -25 1209 0 941 3 1097 23 1210 11 60
41 159 61 203 14 30 26 37 15 10z m-76 -43 c-10 -27 -17 -50 -14 -50 3 0 1 -9
-5 -20 -13 -24 -26 -93 -37 -191 -11 -98 -10 -2119 0 -2234 5 -49 24 -139 42
-198 18 -60 29 -105 25 -100 -18 20 -82 189 -95 250 -26 121 -29 244 -29 1168
0 826 4 1051 19 1125 3 14 8 41 11 60 12 60 85 240 98 240 2 0 -4 -22 -15 -50z
m-70 -16 c-11 -27 -24 -58 -29 -69 -20 -44 -32 -109 -48 -245 -9 -87 -9 -2006
1 -2095 16 -146 26 -188 71 -290 34 -75 18 -61 -26 25 -56 107 -73 159 -84
255 -3 28 -7 56 -10 63 -5 18 -5 1978 1 2018 17 119 40 198 87 292 53 106 74
132 37 46z m-92 -55 c-22 -47 -48 -123 -59 -178 -20 -93 -21 -126 -21 -1101 0
-553 3 -1032 7 -1065 11 -87 44 -203 72 -254 32 -58 23 -65 -12 -9 -41 65 -71
135 -91 213 -17 65 -18 142 -18 1095 l0 1025 23 85 c13 47 39 114 59 150 34
61 71 120 77 120 1 0 -16 -37 -37 -81z"/>
<path d="M10458 7635 c-1 -1 -28 -6 -58 -9 -30 -4 -80 -13 -110 -22 -30 -8
-62 -17 -70 -19 -8 -2 -35 -11 -59 -19 -24 -9 -44 -16 -46 -16 -1 0 -1 15 -1
33 1 26 -3 33 -22 35 l-22 3 2 -1733 c3 -1725 3 -1733 23 -1733 20 0 20 7 21
1515 0 1707 -8 1542 81 1619 90 77 237 133 353 134 83 0 139 -19 181 -63 31
-33 39 -49 48 -107 7 -45 10 -563 10 -1563 0 -822 0 -1505 0 -1517 1 -15 7
-21 21 -20 20 1 20 8 20 1547 0 1311 -2 1553 -15 1599 -16 60 -7 58 15 -4 11
-33 14 -294 14 -1590 1 -1543 1 -1550 21 -1550 20 0 20 7 20 1533 0 842 3
1532 8 1532 4 0 7 -691 7 -1535 0 -1528 0 -1535 20 -1535 14 0 20 7 21 23 0
12 0 534 0 1160 0 627 3 1136 7 1132 4 -4 8 -523 9 -1153 0 -631 2 -1150 2
-1154 1 -5 10 -8 21 -8 l21 0 -3 1583 c-3 1209 -6 1590 -16 1616 -14 41 -9 52
10 19 11 -19 13 -311 16 -1608 1 -872 4 -1591 7 -1598 3 -8 13 -12 22 -10 17
3 18 40 18 615 0 337 4 615 9 620 4 4 7 3 6 -2 -1 -6 -2 -286 -1 -622 1 -606
1 -613 21 -613 14 0 20 7 20 21 0 11 4 18 10 14 5 -3 7 -12 3 -20 -4 -11 2
-15 21 -15 l26 0 0 1614 c0 888 3 1617 8 1619 4 3 6 -723 4 -1614 l-3 -1619
25 0 c22 0 24 3 22 45 -1 25 2 45 6 45 4 0 8 -20 8 -45 0 -38 3 -45 20 -45 19
0 20 12 23 1588 1 873 6 1597 11 1609 4 12 14 24 21 26 9 4 8 -6 -4 -36 -14
-38 -16 -196 -16 -1612 0 -1563 0 -1570 20 -1570 16 0 20 7 20 32 0 17 4 35 8
40 5 4 8 4 7 -2 -1 -5 -2 -24 -1 -42 1 -25 5 -31 21 -30 20 1 20 9 21 1537 1
844 3 1544 4 1555 4 37 26 93 40 105 12 10 12 7 0 -18 -8 -16 -19 -49 -23 -73
-4 -24 -8 -732 -7 -1574 0 -1523 0 -1530 20 -1530 20 0 20 8 25 1560 4 1360 7
1564 20 1590 36 70 206 140 345 140 110 0 169 -29 205 -100 l25 -50 5 -1570
c5 -1485 6 -1570 23 -1573 12 -2 17 4 18 20 4 116 0 3082 -4 3109 -4 20 -11
49 -17 64 -19 49 -3 38 24 -17 14 -29 29 -71 33 -93 4 -22 8 -670 10 -1440 4
-1704 3 -1637 26 -1641 9 -1 17 3 18 9 4 98 0 2972 -5 3022 -4 39 -15 93 -25
122 -22 66 -12 60 24 -13 53 -107 53 -105 54 -1674 1 -800 5 -1458 10 -1463 4
-4 14 -5 22 -2 13 5 15 199 13 1473 -1 1606 1 1563 -59 1686 -27 54 -9 38 31
-30 30 -50 63 -177 69 -264 3 -36 6 -694 6 -1462 1 -1424 1 -1423 35 -1400 12
8 11 2843 0 2907 -20 119 -30 155 -57 210 -21 45 -24 54 -9 35 56 -69 104
-206 116 -335 4 -38 7 -689 8 -1445 1 -1368 1 -1375 21 -1375 20 0 20 7 22
1370 1 838 -2 1403 -8 1455 -13 115 -33 193 -69 265 -22 45 -25 54 -9 35 37
-45 97 -183 115 -265 15 -73 17 -196 19 -1465 1 -762 3 -1388 4 -1392 0 -3 9
-5 19 -4 16 3 17 77 18 1377 2 1467 2 1459 -46 1598 -63 178 -237 376 -400
454 -163 79 -453 67 -691 -28 -79 -32 -126 -56 -235 -120 l-31 -19 -63 52
c-134 108 -294 162 -497 167 -66 2 -123 2 -125 0z m482 -320 c12 -58 20 -355
10 -355 -3 0 -7 66 -8 148 -2 141 -13 224 -35 267 -9 18 -8 18 6 7 9 -8 21
-38 27 -67z m115 53 c9 -44 12 -118 3 -118 -6 0 -12 35 -10 61 0 3 -3 22 -8
42 -4 21 -4 37 1 37 5 0 11 -10 14 -22z m66 -1092 c0 -603 -2 -1100 -5 -1103
-3 -4 -6 470 -7 1053 0 582 -3 1084 -5 1114 -3 38 -2 52 6 44 6 -6 10 -369 11
-1108z m-233 1006 c12 -68 0 -68 -15 1 -6 28 -14 63 -17 77 l-7 25 15 -25 c8
-14 19 -49 24 -78z m362 61 c-3 -21 -7 -41 -8 -45 -1 -5 -2 -17 -2 -28 0 -11
-3 -20 -7 -20 -8 0 -6 93 2 118 10 29 22 9 15 -25z m119 -25 c-10 -29 -18 -68
-19 -85 0 -18 -5 -33 -11 -33 -6 0 -8 8 -5 18 2 9 8 37 11 62 6 38 28 90 39
90 1 0 -5 -24 -15 -52z m-300 -238 c1 -88 -2 -160 -6 -160 -5 0 -8 72 -9 160
0 88 3 160 7 160 3 0 7 -72 8 -160z m168 5 c0 -86 -2 -153 -6 -149 -9 8 -10
304 -1 304 4 0 7 -70 7 -155z m110 -30 c0 -74 -3 -135 -6 -135 -5 0 -7 257 -2
268 6 14 8 -18 8 -133z m-393 -345 c1 -127 -2 -230 -5 -230 -3 0 -6 106 -7
236 0 129 2 233 6 230 3 -4 6 -110 6 -236z m285 155 c-1 -30 -5 -53 -8 -49 -9
9 -7 104 2 104 4 0 7 -25 6 -55z m-171 -10 c0 -30 -2 -55 -7 -55 -6 0 -8 95
-2 108 5 10 7 -6 9 -53z m280 0 c0 -30 -3 -55 -7 -55 -6 0 -8 93 -2 108 5 11
8 -7 9 -53z m-109 -110 c-1 -30 -5 -53 -8 -49 -9 9 -7 104 2 104 4 0 7 -25 6
-55z m-171 -10 c0 -30 -2 -55 -7 -55 -6 0 -8 95 -2 108 5 10 7 -6 9 -53z m280
0 c0 -30 -3 -55 -7 -55 -6 0 -8 93 -2 108 5 11 8 -7 9 -53z m-109 -110 c-1
-30 -5 -53 -8 -49 -9 9 -7 104 2 104 4 0 7 -25 6 -55z m-170 -90 c0 -74 -3
-135 -7 -135 -5 0 -8 254 -3 268 7 17 9 -21 10 -133z m278 0 c0 -74 -2 -135
-6 -135 -5 0 -7 257 -2 268 6 12 8 -17 8 -133z m-107 -14 c0 -22 -3 -42 -8
-45 -4 -2 -7 16 -7 40 0 24 3 44 8 44 4 0 7 -18 7 -39z m0 -76 c0 -8 -4 -15
-8 -15 -5 0 -9 7 -9 15 0 8 4 15 9 15 4 0 8 -7 8 -15z m0 -40 c0 -8 -2 -15 -4
-15 -2 0 -6 7 -10 15 -3 8 -1 15 4 15 6 0 10 -7 10 -15z m-173 -90 c1 -41 -2
-75 -6 -75 -5 0 -8 137 -2 148 5 11 7 -8 8 -73z m281 0 c0 -41 -3 -75 -7 -75
-5 0 -7 134 -2 148 6 14 9 -11 9 -73z m-108 50 c0 -8 -4 -15 -8 -15 -5 0 -9 7
-9 15 0 8 4 15 9 15 4 0 8 -7 8 -15z m0 -40 c0 -8 -2 -15 -4 -15 -2 0 -6 7
-10 15 -3 8 -1 15 4 15 6 0 10 -7 10 -15z m0 -40 c0 -8 -4 -15 -8 -15 -5 0 -9
7 -9 15 0 8 4 15 9 15 4 0 8 -7 8 -15z m0 -40 c0 -8 -2 -15 -4 -15 -2 0 -6 7
-10 15 -3 8 -1 15 4 15 6 0 10 -7 10 -15z m-173 -90 c1 -41 -2 -75 -6 -75 -5
0 -8 137 -2 148 5 11 7 -8 8 -73z m281 0 c0 -41 -3 -75 -7 -75 -5 0 -7 134 -2
148 6 14 9 -11 9 -73z m-108 50 c0 -8 -4 -15 -8 -15 -5 0 -9 7 -9 15 0 8 4 15
9 15 4 0 8 -7 8 -15z m0 -40 c0 -8 -2 -15 -4 -15 -2 0 -6 7 -10 15 -3 8 -1 15
4 15 6 0 10 -7 10 -15z m0 -40 c0 -8 -4 -15 -8 -15 -5 0 -9 7 -9 15 0 8 4 15
9 15 4 0 8 -7 8 -15z m0 -40 c0 -8 -2 -15 -4 -15 -2 0 -6 7 -10 15 -3 8 -1 15
4 15 6 0 10 -7 10 -15z m-173 -90 c1 -41 -2 -75 -6 -75 -5 0 -8 137 -2 148 5
11 7 -8 8 -73z m281 0 c0 -41 -3 -75 -7 -75 -5 0 -7 134 -2 148 6 14 9 -11 9
-73z m-108 50 c0 -8 -4 -15 -8 -15 -5 0 -9 7 -9 15 0 8 4 15 9 15 4 0 8 -7 8
-15z m0 -40 c0 -8 -2 -15 -4 -15 -2 0 -6 7 -10 15 -3 8 -1 15 4 15 6 0 10 -7
10 -15z m0 -40 c0 -8 -4 -15 -8 -15 -5 0 -9 7 -9 15 0 8 4 15 9 15 4 0 8 -7 8
-15z m0 -40 c0 -8 -2 -15 -4 -15 -2 0 -6 7 -10 15 -3 8 -1 15 4 15 6 0 10 -7
10 -15z m-171 -150 c1 -74 -2 -135 -6 -135 -4 0 -7 57 -7 128 2 136 2 142 7
142 2 0 5 -61 6 -135z m278 0 c0 -74 -3 -135 -6 -135 -5 0 -7 257 -2 268 6 14
8 -18 8 -133z m-107 110 c0 -8 -4 -15 -8 -15 -5 0 -9 7 -9 15 0 8 4 15 9 15 4
0 8 -7 8 -15z m-2 -70 c0 -25 -4 -42 -7 -39 -9 9 -7 84 2 84 4 0 6 -20 5 -45z
m1 -110 c-1 -30 -5 -53 -8 -49 -9 9 -7 104 2 104 4 0 7 -25 6 -55z m0 -120
c-1 -30 -5 -53 -8 -49 -9 9 -7 104 2 104 4 0 7 -25 6 -55z m-171 -10 c0 -30
-2 -55 -7 -55 -6 0 -8 95 -2 108 5 10 7 -6 9 -53z m280 0 c0 -30 -3 -55 -7
-55 -6 0 -8 93 -2 108 5 11 8 -7 9 -53z m-109 -110 c-1 -30 -5 -53 -8 -49 -9
9 -7 104 2 104 4 0 7 -25 6 -55z m-171 -10 c0 -30 -2 -55 -7 -55 -6 0 -8 95
-2 108 5 10 7 -6 9 -53z m280 0 c0 -30 -3 -55 -7 -55 -6 0 -8 93 -2 108 5 11
8 -7 9 -53z m-109 -110 c-1 -30 -5 -53 -8 -49 -9 9 -7 104 2 104 4 0 7 -25 6
-55z m108 -90 c0 -74 -2 -135 -6 -135 -5 0 -7 257 -2 268 6 12 8 -17 8 -133z
m-107 -14 c0 -22 -3 -42 -8 -45 -4 -2 -7 16 -7 40 0 24 3 44 8 44 4 0 7 -18 7
-39z m0 -76 c0 -8 -4 -15 -8 -15 -5 0 -9 7 -9 15 0 8 4 15 9 15 4 0 8 -7 8
-15z m0 -40 c0 -8 -2 -15 -4 -15 -2 0 -6 7 -10 15 -3 8 -1 15 4 15 6 0 10 -7
10 -15z m108 -90 c0 -41 -3 -75 -7 -75 -5 0 -7 134 -2 148 6 14 9 -11 9 -73z
m-223 55 c3 -5 1 -10 -4 -10 -6 0 -11 5 -11 10 0 6 2 10 4 10 3 0 8 -4 11 -10z
m115 -5 c0 -8 -4 -15 -8 -15 -5 0 -9 7 -9 15 0 8 4 15 9 15 4 0 8 -7 8 -15z
m-123 -62 c-3 -10 -5 -2 -5 17 0 19 2 27 5 18 2 -10 2 -26 0 -35z m123 22 c0
-8 -2 -15 -4 -15 -2 0 -6 7 -10 15 -3 8 -1 15 4 15 6 0 10 -7 10 -15z m0 -40
c0 -8 -4 -15 -8 -15 -5 0 -9 7 -9 15 0 8 4 15 9 15 4 0 8 -7 8 -15z m0 -40 c0
-8 -2 -15 -4 -15 -2 0 -6 7 -10 15 -3 8 -1 15 4 15 6 0 10 -7 10 -15z m108
-90 c0 -41 -3 -75 -7 -75 -5 0 -7 134 -2 148 6 14 9 -11 9 -73z m-223 55 c3
-5 1 -10 -4 -10 -6 0 -11 5 -11 10 0 6 2 10 4 10 3 0 8 -4 11 -10z m115 -5 c0
-8 -4 -15 -8 -15 -5 0 -9 7 -9 15 0 8 4 15 9 15 4 0 8 -7 8 -15z m-123 -62
c-3 -10 -5 -2 -5 17 0 19 2 27 5 18 2 -10 2 -26 0 -35z m123 22 c0 -8 -2 -15
-4 -15 -2 0 -6 7 -10 15 -3 8 -1 15 4 15 6 0 10 -7 10 -15z m0 -40 c0 -8 -4
-15 -8 -15 -5 0 -9 7 -9 15 0 8 4 15 9 15 4 0 8 -7 8 -15z m0 -40 c0 -8 -2
-15 -4 -15 -2 0 -6 7 -10 15 -3 8 -1 15 4 15 6 0 10 -7 10 -15z m108 -90 c0
-41 -3 -75 -7 -75 -5 0 -7 134 -2 148 6 14 9 -11 9 -73z m-223 55 c3 -5 1 -10
-4 -10 -6 0 -11 5 -11 10 0 6 2 10 4 10 3 0 8 -4 11 -10z m115 -5 c0 -8 -4
-15 -8 -15 -5 0 -9 7 -9 15 0 8 4 15 9 15 4 0 8 -7 8 -15z m-123 -62 c-3 -10
-5 -2 -5 17 0 19 2 27 5 18 2 -10 2 -26 0 -35z m123 22 c0 -8 -2 -15 -4 -15
-2 0 -6 7 -10 15 -3 8 -1 15 4 15 6 0 10 -7 10 -15z m0 -40 c0 -8 -4 -15 -8
-15 -5 0 -9 7 -9 15 0 8 4 15 9 15 4 0 8 -7 8 -15z m0 -40 c0 -8 -2 -15 -4
-15 -2 0 -6 7 -10 15 -3 8 -1 15 4 15 6 0 10 -7 10 -15z m107 -150 c0 -74 -3
-135 -6 -135 -5 0 -7 257 -2 268 6 14 8 -18 8 -133z m-222 115 c3 -5 1 -10 -4
-10 -6 0 -11 5 -11 10 0 6 2 10 4 10 3 0 8 -4 11 -10z m115 -5 c0 -8 -4 -15
-8 -15 -5 0 -9 7 -9 15 0 8 4 15 9 15 4 0 8 -7 8 -15z m-123 -52 c-3 -10 -5
-4 -5 12 0 17 2 24 5 18 2 -7 2 -21 0 -30z m121 -18 c0 -25 -4 -42 -7 -39 -9
9 -7 84 2 84 4 0 6 -20 5 -45z m-121 -27 c-3 -8 -6 -5 -6 6 -1 11 2 17 5 13 3
-3 4 -12 1 -19z m8 -27 c3 -5 1 -12 -5 -16 -5 -3 -10 1 -10 9 0 18 6 21 15 7z
m114 -56 c-1 -30 -5 -53 -8 -49 -9 9 -7 104 2 104 4 0 7 -25 6 -55z m-117 -35
c-2 -16 -6 -30 -8 -30 -2 0 -4 14 -4 30 0 17 4 30 8 30 5 0 7 -13 4 -30z m117
-85 c-1 -30 -5 -53 -8 -49 -9 9 -7 104 2 104 4 0 7 -25 6 -55z m-122 23 c-3
-8 -6 -5 -6 6 -1 11 2 17 5 13 3 -3 4 -12 1 -19z m231 -33 c0 -30 -3 -55 -7
-55 -6 0 -8 93 -2 108 5 11 8 -7 9 -53z m-223 -55 c3 -5 1 -10 -4 -10 -6 0
-11 5 -11 10 0 6 2 10 4 10 3 0 8 -4 11 -10z"/>
<path d="M9530 5887 c0 -1726 0 -1733 20 -1734 12 -1 20 5 21 15 1 22 1 3377
0 3420 -1 25 -5 32 -21 32 -20 0 -20 -7 -20 -1733z"/>
<path d="M9590 5890 l0 -1730 23 0 23 0 -2 1698 c0 933 -2 1712 -2 1730 -2 25
-6 32 -22 32 -20 0 -20 -7 -20 -1730z"/>
<path d="M9650 5890 l0 -1730 23 0 24 0 0 1730 0 1730 -23 0 -24 0 0 -1730z"/>
<path d="M9717 7603 c-2 -10 -4 -790 -3 -1733 1 -1708 1 -1715 21 -1715 20 0
20 7 20 1730 0 1606 -1 1730 -17 1733 -9 2 -18 -5 -21 -15z"/>
<path d="M9775 7608 c-3 -7 -4 -787 -3 -1733 3 -1712 3 -1720 23 -1720 20 0
20 7 20 1730 0 1641 -1 1730 -18 1733 -9 2 -19 -2 -22 -10z"/>
<path d="M9832 5885 c3 -1722 3 -1730 23 -1730 20 0 20 7 21 1720 0 946 -1
1725 -4 1732 -2 6 -12 11 -23 10 -19 -1 -19 -31 -17 -1732z"/>
<path d="M9895 7608 c-3 -7 -4 -787 -3 -1733 3 -1712 3 -1720 23 -1720 20 0
20 7 21 1720 0 946 -1 1726 -4 1733 -2 6 -11 12 -18 12 -8 0 -17 -6 -19 -12z"/>
<path d="M9952 5888 c3 -1725 3 -1733 23 -1733 20 0 20 7 21 1720 1 946 -1
1726 -3 1733 -3 6 -14 12 -24 12 -19 0 -19 -38 -17 -1732z"/>
<path d="M10012 5888 c3 -1725 3 -1733 23 -1733 20 0 20 7 22 1719 1 945 -1
1725 -4 1732 -3 8 -14 14 -24 14 -19 0 -19 -38 -17 -1732z"/>
<path d="M956 3027 c-2 -10 1 -20 7 -23 7 -2 2401 -3 5322 -2 5302 3 5310 3
5310 23 0 20 -7 20 -5317 20 -5137 0 -5317 0 -5322 -18z"/>
</g>
</svg>
